{"title":"Mai.Dire.Grande.Fratello.Show.2009.1x06.DVB-TRip.MP3.iTA.XviD.fi","uid":5145488,"size":1176547328,"categoryP":"video","categoryS":"tv_shows","magnet":"?xt=urn:btih:91fc52902be0b4ef35d2863db17cc9113fcca59d&amp;dn=Mai.Dire.Grande.Fratello.Show.2009.1x06.DVB-TRip.MP3.iTA.XviD.fi&amp;tr=udp%3A%2F%2Ftracker.openbittorrent.com%3A80&amp;tr=udp%3A%2F%2Fopen.demonii.com%3A1337&amp;tr=udp%3A%2F%2Ftracker.coppersurfer.tk%3A6969&amp;tr=udp%3A%2F%2Fexodus.desync.com%3A6969","seeders":0,"leechers":1,"uploader":null,"files":1,"time":1257240803,"description":"Taken from http://forum.tntvillage.scambioetico.org/tntforum/index.php?showtopic=165976\n\n\nGeneral\nComplete name                    : C:Mai.Dire.Grande.Fratello.Show.2009.1x06.DVB-TRip.MP3.iTA.XviD.firefox.avi\nFormat                           : AVI\nFormat/Info                      : Audio Video Interleave\nFile size                        : 1.10 GiB\nDuration                         : 1h 30mn\nOverall bit rate                 : 1 738 Kbps\nWriting application              : VirtualDubMod 1.5.10.2 (build 2540/release)\nWriting library                  : VirtualDubMod build 2540/release\n\nVideo\nID                               : 0\nFormat                           : MPEG-4 Visual\nFormat profile                   : AdvancedSimple@L5\nFormat settings, BVOP            : Yes\nFormat settings, QPel            : No\nFormat settings, GMC             : No warppoints\nFormat settings, Matrix          : Default (MPEG)\nCodec ID                         : XVID\nCodec ID/Hint                    : XviD\nDuration                         : 1h 30mn\nBit rate                         : 1 599 Kbps\nWidth                            : 500 pixels\nHeight                           : 376 pixels\nDisplay aspect ratio             : 4:3\nFrame rate                       : 25.000 fps\nResolution                       : 24 bits\nColorimetry                      : 4:2:0\nScan type                        : Progressive\nBits/(Pixel*Frame)               : 0.340\nStream size                      : 1.01 GiB (92%)\nWriting library                  : XviD 1.2.1 (UTC 2008-12-04)\n\nAudio\nID                               : 1\nFormat                           : MPEG Audio\nFormat version                   : Version 1\nFormat profile                   : Layer 3\nCodec ID                         : 55\nCodec ID/Hint                    : MP3\nDuration                         : 1h 30mn\nBit rate mode                    : Variable\nBit rate                         : 128 Kbps\nChannel(s)                       : 2 channels\nSampling rate                    : 48.0 KHz\nResolution                       : 16 bits\nStream size                      : 81.4 MiB (7%)\nAlignment                        : Aligned on interleaves\nInterleave, duration             : 24 ms (0.60 video frame)\nInterleave, preload duration     : 487 ms\n\n","torrent":{"xt":"urn:btih:91fc52902be0b4ef35d2863db17cc9113fcca59d","amp;dn":"Mai.Dire.Grande.Fratello.Show.2009.1x06.DVB-TRip.MP3.iTA.XviD.fi","amp;tr":["udp%3A%2F%2Ftracker.openbittorrent.com%3A80","udp%3A%2F%2Fopen.demonii.com%3A1337","udp%3A%2F%2Ftracker.coppersurfer.tk%3A6969","udp%3A%2F%2Fexodus.desync.com%3A6969"],"infoHash":"91fc52902be0b4ef35d2863db17cc9113fcca59d","infoHashBuffer":{"type":"Buffer","data":[145,252,82,144,43,224,180,239,53,210,134,61,177,124,201,17,63,204,165,157]},"announce":[],"urlList":[]}}